<?xml version="1.0" encoding="UTF-8"?> <svg xmlns="http://www.w3.org/2000/svg" width="42" height="64" viewBox="0 0 42 64" fill="none"><g clip-path="url(#clip0_3833_39588)"><path d="M39.0868 23.95C37.6449 20.4223 35.1978 17.4049 32.0548 15.2794C28.9118 13.1539 25.2141 12.0157 21.4295 12.0088C17.6448 12.002 13.9431 13.1267 10.7925 15.2408C7.64194 17.3549 5.18402 20.3634 3.72959 23.8858C2.27517 27.4082 1.88957 31.2864 2.62156 35.0297C3.35356 38.7731 5.17027 42.2135 7.84193 44.916C10.5136 47.6184 13.9202 49.4614 17.6309 50.212C21.3417 50.9625 25.1899 50.5868 28.6888 49.1325" stroke="#003DA5" stroke-width="2.2" stroke-linecap="round" stroke-linejoin="round"></path><path d="M31.939 23.5765L39.1068 23.9487L39.476 16.7227" stroke="#003DA5" stroke-width="2.2" stroke-linecap="round" stroke-linejoin="round"></path><path d="M12.0762 27.5265C12.4303 26.9553 12.9304 26.4907 13.524 26.1815C14.1177 25.8722 14.7829 25.7298 15.4499 25.7691C17.9315 25.7691 19.2646 28.9944 17.0393 31.2377L11.2661 37.0578H18.3519" stroke="#003DA5" stroke-width="2.2" stroke-linecap="round" stroke-linejoin="round"></path><path d="M28.3299 37.0676V25.7686L22.3926 33.2427H30.6166" stroke="#003DA5" stroke-width="2.2" stroke-linecap="round" stroke-linejoin="round"></path></g><defs><clipPath id="clip0_3833_39588"><rect width="41.7391" height="64" fill="white"></rect></clipPath></defs></svg> 