<?xml version="1.0" encoding="UTF-8"?> <svg xmlns="http://www.w3.org/2000/svg" width="31" height="64" viewBox="0 0 31 64" fill="none"><g clip-path="url(#clip0_3833_39596)"><g clip-path="url(#clip1_3833_39596)"><path d="M15.3042 29.2173C18.3778 29.2173 20.8694 26.7257 20.8694 23.6521C20.8694 20.5785 18.3778 18.0869 15.3042 18.0869C12.2306 18.0869 9.73901 20.5785 9.73901 23.6521C9.73901 26.7257 12.2306 29.2173 15.3042 29.2173Z" stroke="#003DA5" stroke-width="2.2" stroke-linecap="round" stroke-linejoin="round"></path><path d="M27.7774 29.5141C28.8225 27.431 29.3126 25.1205 29.2018 22.7995C29.0911 20.4786 28.383 18.2236 27.1441 16.2463C25.9053 14.269 24.1764 12.6344 22.1198 11.4962C20.0633 10.358 17.7468 9.75348 15.3879 9.73951C13.029 9.72553 10.7052 10.3025 8.6349 11.4163C6.56464 12.5301 4.81587 14.144 3.55296 16.1065C2.29005 18.0689 1.55446 20.3154 1.41534 22.6349C1.27621 24.9543 1.7381 27.2705 2.75762 29.3658L2.84363 29.5247L15.3052 51.4784L27.7667 29.5141H27.7774Z" stroke="#003DA5" stroke-width="2.2" stroke-linecap="round" stroke-linejoin="round"></path></g></g><defs><clipPath id="clip0_3833_39596"><rect width="30.6087" height="64" fill="white"></rect></clipPath><clipPath id="clip1_3833_39596"><rect width="30.6087" height="44.5217" fill="white" transform="translate(0 8.34766)"></rect></clipPath></defs></svg> 