<?xml version="1.0" encoding="iso-8859-1"?>
<!-- Generator: Adobe Illustrator 26.0.1, SVG Export Plug-In . SVG Version: 6.00 Build 0)  -->
<svg version="1.1" id="Calque_1" xmlns="http://www.w3.org/2000/svg" xmlns:xlink="http://www.w3.org/1999/xlink" x="0px" y="0px"
	 viewBox="0 0 287 586" style="enable-background:new 0 0 287 586;" xml:space="preserve">
<image style="display:none;overflow:visible;" width="287" height="586" xlink:href="F52AFBE0.png" >
</image>
<path style="fill:#1E1B58;" d="M140.518,288.443H73.501c-0.337,0-0.611-0.273-0.611-0.611v-0.952c0-0.337,0.273-0.611,0.611-0.611
	h67.017c0.337,0,0.611,0.273,0.611,0.611v0.952C141.128,288.169,140.855,288.443,140.518,288.443z"/>
<path style="fill:#1E1B58;" d="M130.124,294.601H63.107c-0.337,0-0.611-0.273-0.611-0.611v-0.952c0-0.337,0.273-0.611,0.611-0.611
	h67.017c0.337,0,0.611,0.273,0.611,0.611v0.952C130.735,294.327,130.461,294.601,130.124,294.601z"/>
<path style="fill:#1E1B58;" d="M117.47,301.483H50.453c-0.337,0-0.611-0.273-0.611-0.611v-0.952c0-0.337,0.273-0.611,0.611-0.611
	h67.017c0.337,0,0.611,0.273,0.611,0.611v0.952C118.081,301.21,117.808,301.483,117.47,301.483z"/>
<g>
	<g>
		<path style="fill:#3E1E43;" d="M151.03,129.189c-8.257-1.919-10.396,8.949-10.396,8.949h-1.641c0,0,1.791-13.454,12.933-9.673
			C163.067,132.244,151.03,129.189,151.03,129.189z"/>
		<path style="fill:#3E1E43;" d="M126.358,171.939c-4.875,11.441-25.17,1.691-26.463-1.89c-1.293-3.581-1.767-4.275,1.928,0
			c3.696,4.275,18.566,8.913,23.441,2.168C130.138,165.472,126.358,171.939,126.358,171.939z"/>
		
			<linearGradient id="SVGID_1_" gradientUnits="userSpaceOnUse" x1="192.3892" y1="138.2665" x2="223.8114" y2="169.6886" gradientTransform="matrix(-1 0 0 1 264.9747 0)">
			<stop  offset="0.0041" style="stop-color:#EB524D"/>
			<stop  offset="1" style="stop-color:#AB1948"/>
		</linearGradient>
		<path style="fill:url(#SVGID_1_);" d="M55.455,158.971c0,0,8.93-8.282,22.017-11.565c13.088-3.283-8.19,10.744-19.295,12.237
			c0,0,2.866-0.075,14.257,2.985c11.391,3.059-10.102,2.164-19.702-2.238c0,0-16.406-1.269-24.215-4.104
			C20.708,153.449,41.822,153.757,55.455,158.971z"/>
		<path style="opacity:0.75;fill:#AB1948;" d="M30.184,156.828c11.651,1.599,25.271,2.143,25.271,2.143
			c13.161-10.878,18.279-5.339,24.615-9.551c-3.994,3.436-14.938,9.288-21.893,10.222c0,0,1.471,2.662,9.97,4.442
			c-4.966-0.561-11.288-1.803-15.415-3.696C52.733,160.388,38.438,159.281,30.184,156.828z"/>
		<path style="fill:#E42320;" d="M212.505,136.242c0,0-3.432-5.745,17.46-10.446s18.952,4.029-11.192,12.684
			c0,0,8.73,0.821,22.235,6.044s-17.062-0.821-27.259-5.671c0,0-12.958,0.672-28.104-2.388
			C170.497,133.407,178.183,128.781,212.505,136.242z"/>
		<path style="opacity:0.75;fill:#AB1948;" d="M212.505,136.242c0,0-1.124-1.898,1.874-4.403c5.731-2.887,11.675,3.486,27.005-2.65
			c-3.531,2.589-10.953,5.944-22.612,9.292c0,0,3.158,3.086,10.301,5.343c-5.765-1.452-11.777-3.282-15.325-4.97
			c0,0-12.958,0.672-28.104-2.388c-0.675-0.136-1.287-0.276-1.871-0.418C193.997,137.949,212.505,136.242,212.505,136.242z"/>
		<path style="fill:#651B30;" d="M215.27,137.865c-3.315-1.046-3.989,6.471-3.952,10.731c0.037,4.26,6.434,5.16,7.178,0.732
			C219.241,144.9,217.874,138.686,215.27,137.865z"/>
		<path style="fill:#1E1B58;" d="M143.943,167.29c0,0-0.741,11.614-3.871,16.803h-4.612c0,0-3.459-7.413-4.201-15.402
			C131.259,168.69,133.812,166.878,143.943,167.29z"/>
		<path style="fill:#A59AC2;" d="M143.943,167.29c0,0-0.741,11.614-3.871,16.803h-4.612c0,0-3.459-7.413-4.201-15.402
			C131.259,168.69,133.812,166.878,143.943,167.29z"/>
		<polygon style="fill:#1E1B58;" points="170.733,152.935 172.668,135.507 136.406,135.507 95.368,151.644 97.01,167.229 		"/>
		<polygon style="fill:#A59AC2;" points="136.677,138.137 134.515,144.027 96.363,161.089 97.01,167.229 138.992,160.054 
			137.601,147.092 		"/>
		
			<linearGradient id="SVGID_00000047777225711974272680000000569108831542776755_" gradientUnits="userSpaceOnUse" x1="90.7401" y1="124.7082" x2="112.6392" y2="146.6073" gradientTransform="matrix(-1 0 0 1 264.9747 0)">
			<stop  offset="0.0081" style="stop-color:#F3D6D2"/>
			<stop  offset="1" style="stop-color:#A59AC2"/>
		</linearGradient>
		<polygon style="fill:url(#SVGID_00000047777225711974272680000000569108831542776755_);" points="176.921,127.394 
			174.906,145.973 151.701,145.973 150.06,126.947 158.689,125.041 		"/>
		<polygon style="fill:#A59AC2;" points="158.689,125.041 159.013,144.481 174.906,145.973 171.506,145.973 171.198,148.745 
			149.687,149.107 143.943,135.507 150.798,135.507 150.06,126.947 		"/>
		<path style="fill:#A59AC2;" d="M136.406,135.507l1.196,11.586c0,0,15.398,4.148,24.621,4.275c3.641,0.05,8.78-0.854,8.78-0.854
			l-0.269,2.422l-27.09,7.438l-46.633,6.855l-0.254-2.414l-1.387-13.171L136.406,135.507z"/>
		<path style="fill:#E42320;" d="M105.72,130.742c0,0,9.38-8.71,30.233-11.39c20.853-2.68-12.478,10.971-28.725,11.39
			c0,0,12.65,5.862,18.845,11.641c6.195,5.778-15.328-5.109-20.939-10.552c0,0-15.242,0.084-29.228-5.862
			C61.92,120.023,81.601,119.688,105.72,130.742z"/>
		<path style="opacity:0.75;fill:#AB1948;" d="M76.929,126.375c1.785,0.259,4.146,0.395,7.247,0.171
			c8.655-0.625,21.544,4.196,21.544,4.196s2.183-2.007,6.726-4.386c8.366-3.521,18.695-0.033,26.425-3.952
			c-6.988,3.379-22.196,8.095-31.644,8.338c0,0,0.615,0.287,1.603,0.774c0.006,0.007,6.275,7.14,13.156,10.754
			c-5.46-2.566-13.688-7.368-16.853-10.439C105.134,131.831,90.625,131.894,76.929,126.375z"/>
		<path style="fill:#651B30;" d="M106.165,131.786c-3.315-1.046-4.379,6.299-4.342,10.559c0.037,4.26,6.434,5.16,7.178,0.732
			C109.745,138.65,108.768,132.607,106.165,131.786z"/>
		<path style="fill:#651B30;" d="M55.802,160.086c-2.762-1.046-3.323,6.471-3.292,10.731c0.031,4.26,5.36,5.16,5.98,0.732
			C59.11,167.122,57.971,160.907,55.802,160.086z"/>
		<path style="fill:#1E1B58;" d="M62.439,166.141c0,0-0.036,0.546-0.119,1.42c5.427-0.285,32.441-1.78,39.654-3.679
			c12.631-3.349,30.171-8.085,30.553-8.657c0.306-0.46-0.036-1.973-0.441-3.341c-8.311-3.03-15.738-5.771-19.089-7.086
			c-0.618,4.645-1.97,11.029-4.247,14.805h-5.571c0,0-4.178-8.954-5.074-18.604c0,0,3.084-2.189,15.321-1.691
			c0,0-0.054,0.822-0.184,2.137c8.012,2.088,42.056,10.891,49.33,11.592c8.257,0.796,44.072-3.681,44.072-3.681
			s3.084-2.189,15.32-1.691c0,0-0.895,14.027-4.676,20.295h-5.571c0,0-3.326-7.144-4.677-15.545
			c-4.476,0.983-17.034,3.718-27.814,5.844l-1.632,11.79l-41.187,1.393l-4.473-0.209l0.742,0.209l-70.665-1.133
			c-0.502,3.854-1.521,9.451-3.442,12.636h-4.613c0,0-3.459-7.413-4.2-15.402C49.755,167.541,52.308,165.729,62.439,166.141z"/>
		
			<linearGradient id="SVGID_00000049910730493308245030000001609112723076817837_" gradientUnits="userSpaceOnUse" x1="94.6946" y1="169.3974" x2="147.9687" y2="169.3974" gradientTransform="matrix(-1 0 0 1 264.9747 0)">
			<stop  offset="0.0081" style="stop-color:#F3D6D2"/>
			<stop  offset="1" style="stop-color:#A59AC2"/>
		</linearGradient>
		<polygon style="fill:url(#SVGID_00000049910730493308245030000001609112723076817837_);" points="170.28,165.671 168.489,175.661 
			126.557,175.661 117.006,168.208 143.943,163.134 		"/>
		<path style="fill:#A59AC2;" d="M168.489,175.661l-24.546-1.832v-10.695l26.337,2.537l3.731-0.597l-30.368-3.482l-6.541,0.796
			l-3.084-2.334c0,0-32.73,7.209-35.118,7.906c-2.388,0.696-36.909,1.438-36.909,1.438l0.019,0.91l58.901,0.935l5.646,4.418H168.489
			z"/>
		<path style="fill:#A59AC2;" d="M213.59,147.786c-0.326,5.67,1.286,16.964,1.769,20.173h-3.644c0,0-3.326-7.144-4.677-15.545
			c-4.476,0.983-17.034,3.718-27.814,5.844l27.417-8.903C206.642,149.356,208.235,148.243,213.59,147.786z"/>
		<path style="fill:#A59AC2;" d="M49.755,167.541c0,0,0.847-0.594,3.468-1.024l2.709,16.427h-1.977
			C53.955,182.943,50.496,175.531,49.755,167.541z"/>
		<path style="fill:#1E1B58;" d="M213.59,147.786c2.144-0.183,4.873-0.264,8.372-0.122c0,0-0.791,12.379-4.022,19.075
			C219.934,155.428,213.59,147.786,213.59,147.786z"/>
		<path style="fill:#1E1B58;" d="M112.977,142.541v2.383c-0.626,4.634-1.971,10.936-4.228,14.678h-1.969
			c-0.431-4.246-1.747-16.453-2.954-20.051c2.29-0.266,5.393-0.415,9.598-0.244c0,0-0.054,0.822-0.184,2.137
			c8.012,2.088,42.056,10.891,49.33,11.592c3.129,0.302,10.218-0.155,17.813-0.837c-13.834,4.518-15.476,6.846-24.131,7.025
			C147.598,159.403,112.977,142.541,112.977,142.541z"/>
		
			<linearGradient id="SVGID_00000148621617730516500950000016279312586224883642_" gradientUnits="userSpaceOnUse" x1="172.6396" y1="174.0311" x2="210.674" y2="174.0311" gradientTransform="matrix(-1 0 0 1 264.9747 0)">
			<stop  offset="0" style="stop-color:#000000"/>
			<stop  offset="1" style="stop-color:#A59AC2"/>
		</linearGradient>
		<path style="opacity:0.52;fill:url(#SVGID_00000148621617730516500950000016279312586224883642_);" d="M62.439,166.141
			c0,0-0.036,0.546-0.119,1.42c3.93-0.206,19.162-1.049,30.016-2.219c0.013,0.002-30.344,4.055-30.344,4.055l0.019,0.91
			c-0.492,3.772-1.483,9.196-3.325,12.412c-0.284-3.886-1.244-11.429-4.384-16.355C56.212,166.131,58.84,165.995,62.439,166.141z"/>
		
			<linearGradient id="SVGID_00000081635474343901300070000015434988000846193565_" gradientUnits="userSpaceOnUse" x1="93.9032" y1="133.4699" x2="148.5969" y2="133.4699" gradientTransform="matrix(-1 0 0 1 264.9747 0)">
			<stop  offset="0" style="stop-color:#FFC293"/>
			<stop  offset="0.2005" style="stop-color:#BB8E6C"/>
			<stop  offset="0.4154" style="stop-color:#795C46"/>
			<stop  offset="0.6108" style="stop-color:#453528"/>
			<stop  offset="0.7795" style="stop-color:#1F1812"/>
			<stop  offset="0.9148" style="stop-color:#080605"/>
			<stop  offset="1" style="stop-color:#000000"/>
		</linearGradient>
		<path style="opacity:0.74;fill:url(#SVGID_00000081635474343901300070000015434988000846193565_);" d="M175.348,141.899
			l1.573-14.505l-18.231-2.354C158.689,125.041,169.92,128.672,175.348,141.899z"/>
		
			<linearGradient id="SVGID_00000168829572825432913520000015108190861772628614_" gradientUnits="userSpaceOnUse" x1="103.1444" y1="169.0582" x2="182.1547" y2="169.0582" gradientTransform="matrix(-1 0 0 1 264.9747 0)">
			<stop  offset="0" style="stop-color:#FFC293"/>
			<stop  offset="0.2005" style="stop-color:#BB8E6C"/>
			<stop  offset="0.4154" style="stop-color:#795C46"/>
			<stop  offset="0.6108" style="stop-color:#453528"/>
			<stop  offset="0.7795" style="stop-color:#1F1812"/>
			<stop  offset="0.9148" style="stop-color:#080605"/>
			<stop  offset="1" style="stop-color:#000000"/>
		</linearGradient>
		<polygon style="opacity:0.74;fill:url(#SVGID_00000168829572825432913520000015108190861772628614_);" points="170.28,165.671 
			168.611,174.982 143.943,167.29 143.943,163.134 		"/>
		<g>
			<path style="fill:#1E1B58;" d="M171.963,137.232c-0.329,3.996-2.149,6.892-4.064,6.469c-1.915-0.423-3.2-4.006-2.87-8.002
				c0.329-3.996,2.149-6.892,4.063-6.469C171.007,129.653,172.292,133.236,171.963,137.232z"/>
			<path style="fill:#1E1B58;" d="M168.11,130.629c1.569,0.347,2.622,3.283,2.352,6.558c-0.27,3.275-1.761,5.648-3.33,5.301
				c-0.548-0.121-1.031-0.563-1.418-1.22c-0.58-1.475-0.859-3.462-0.685-5.57c0.106-1.288,0.369-2.459,0.738-3.444
				C166.394,131.083,167.24,130.436,168.11,130.629z"/>
			<path style="fill:#1E1B58;" d="M169.038,137.001c-0.216,2.617-1.669,4.456-3.246,4.107c-0.051-0.011-0.1-0.031-0.151-0.046
				c-0.528-1.452-0.778-3.35-0.612-5.364c0.106-1.288,0.369-2.459,0.738-3.444c0.132-0.246,0.275-0.464,0.425-0.661
				c0.126,0,0.253,0.009,0.382,0.037C168.15,131.98,169.254,134.384,169.038,137.001z"/>
			<g>
				<defs>
					<path id="SVGID_00000003101486805658722280000017274554783041027741_" d="M171.963,137.232
						c-0.329,3.996-2.149,6.892-4.064,6.469c-1.915-0.423-3.2-4.006-2.87-8.002c0.329-3.996,2.149-6.892,4.063-6.469
						C171.007,129.653,172.292,133.236,171.963,137.232z"/>
				</defs>
				<use xlink:href="#SVGID_00000003101486805658722280000017274554783041027741_"  style="overflow:visible;fill:#1E1B58;"/>
				<clipPath id="SVGID_00000059285052366980973430000017486194066134332862_">
					<use xlink:href="#SVGID_00000003101486805658722280000017274554783041027741_"  style="overflow:visible;"/>
				</clipPath>
				<path style="clip-path:url(#SVGID_00000059285052366980973430000017486194066134332862_);fill:#1E1B58;" d="M171.225,137.449
					c0.304-3.683-1.954-7.223-5.044-7.906c-3.089-0.683-5.839,1.749-6.143,5.432c-0.304,3.683,1.954,7.223,5.043,7.906
					C168.171,143.564,170.921,141.132,171.225,137.449z"/>
			</g>
		</g>
		<path style="fill:#A59AC2;" d="M131.259,165.523c0.073,2.734,3.853,10.137,3.853,10.137h-1.094c0,0-2.985-6.405-3.582-10.137
			H131.259z"/>
		<polygon style="fill:#A59AC2;" points="150.253,129.189 155.507,132.337 155.507,145.973 154.91,145.973 154.213,132.966 
			150.375,130.595 		"/>
		<polygon style="fill:#A59AC2;" points="174.906,145.973 159.013,144.481 151.701,145.973 171.506,145.973 		"/>
		<polygon style="fill:#A59AC2;" points="168.489,175.661 143.943,173.829 126.557,175.661 		"/>
	</g>
	<polygon style="fill:#3E1E43;" points="147.523,174.47 145.86,249.009 144.747,249.009 143.943,174.982 	"/>
</g>
<g>
	<g>
		
			<radialGradient id="SVGID_00000161604429718401268440000014805026645259015594_" cx="127.9261" cy="291.1479" r="47.8335" gradientTransform="matrix(0.9719 0.2353 -0.2353 0.9719 83.6043 -21.9821)" gradientUnits="userSpaceOnUse">
			<stop  offset="0" style="stop-color:#FFFFFF"/>
			<stop  offset="0.0851" style="stop-color:#FFEDD8"/>
			<stop  offset="0.2082" style="stop-color:#FFD5A7"/>
			<stop  offset="0.3345" style="stop-color:#FFC17D"/>
			<stop  offset="0.462" style="stop-color:#FFB05B"/>
			<stop  offset="0.591" style="stop-color:#FFA340"/>
			<stop  offset="0.7222" style="stop-color:#FF9A2D"/>
			<stop  offset="0.8568" style="stop-color:#FF9522"/>
			<stop  offset="1" style="stop-color:#FF931E"/>
		</radialGradient>
		<path style="fill:url(#SVGID_00000161604429718401268440000014805026645259015594_);" d="M170.208,341.265l-84.784-20.53
			c0,0,5.205-56.517,11.237-79.969l10.273,2.488l0.597-2.467l67.697,16.266l25.04,9.685
			C200.269,266.738,180.747,324.737,170.208,341.265z"/>
		<g style="opacity:0.85;">
			<path style="fill:#AB5E47;" d="M96.661,240.766l10.273,2.488l0.597-2.467l5.861,3.737c-8.005,32.456-16.631,78.957-16.631,78.957
				l-11.337-2.745C85.425,320.735,90.629,264.218,96.661,240.766z"/>
		</g>
		<g style="opacity:0.36;">
			<path style="fill:#AB5E47;" d="M107.531,240.786l67.697,16.266l25.041,9.686c0,0-91.736-21.978-103.608-25.972l10.273,2.488
				L107.531,240.786z"/>
		</g>
		<path style="fill:#AB5E47;" d="M200.269,266.738l-87.071-21.426c0,0-9.508,40.987-13.163,61.12l14.832-57.724l84.399,20.973
			L200.269,266.738z"/>
		<g style="opacity:0.74;">
			<path style="fill:#AB5E47;" d="M85.425,320.735c0,0,0.23-2.498,0.648-6.65c-0.1,2.425,0.319,6.518,4.208,7.025
				c5.567,0.725,8.099-6.161,8.099-6.161c5.11,9.101,23.092,14.16,36.752,16.849c13.655,2.688,36.429,7.174,40.226-0.219
				c-1.851,3.915-3.598,7.253-5.15,9.687L85.425,320.735z"/>
		</g>
		<g style="opacity:0.2;">
			<path style="fill:#AB5E47;" d="M177.627,310.991c-9.854,15.872-28.504,20.304-34.6,21.038c-6.097,0.734,22.946,8.12,27.259,5.63
				C174.599,335.17,193.123,286.033,177.627,310.991z"/>
		</g>
		<g style="opacity:0.2;">
			<path style="fill:#AB5E47;" d="M107.369,271.111c1.897-9.801-12.548,19.476-14.502,26.865
				c-1.954,7.389,1.775,36.214,5.513,16.972C102.118,295.706,107.369,271.111,107.369,271.111z"/>
		</g>
		<g style="opacity:0.21;">
			<path style="fill:#E99247;" d="M110.218,258.361c2.057-9.041,7.717,5.225,7.144,14.274c-0.573,9.049-17.596,38.67-15.194,22.822
				C104.571,279.608,110.218,258.361,110.218,258.361z"/>
		</g>
		<g style="opacity:0.21;">
			<path style="fill:#E99247;" d="M191.561,264.664c6.371,1.508-9.167,4.46-24.107,1.548c-14.941-2.911-39.385-17.241-22.045-12.974
				C162.749,257.505,191.561,264.664,191.561,264.664z"/>
		</g>
		<g style="opacity:0.85;">
			<path style="fill:#AB5E47;" d="M161.293,255.499l1.164,0.787l-23.254-5.631l-6.828-3.907c0,0,3.284-0.426,3.673-0.332
				C136.437,246.511,161.293,255.499,161.293,255.499z"/>
		</g>
		<g style="opacity:0.85;">
			<polygon style="fill:#AB5E47;" points="191.367,291.926 190.04,293.708 185.967,292.722 178.265,317.477 180.993,318.373 			"/>
		</g>
		<path style="fill:#F0C9AC;" d="M161.293,255.499l-20.25-4.903l-5.014-2.962l-3.654-0.885c0,0,0.458-1.405,1.707-1.456
			c1.249-0.051,20.655,5.178,22.506,5.803C158.439,251.72,162.421,253.029,161.293,255.499z"/>
		<path style="fill:#F0C9AC;" d="M191.512,291.534l-1.153,3.132l-3.424-0.829c0,0-7.514,20.387-7.745,21.921
			c-0.231,1.534,3.96,3.197,5.269,1.924c1.309-1.273,8.251-21.913,8.434-23.4C193.076,292.794,191.512,291.534,191.512,291.534z"/>
		<g style="opacity:0.44;">
			<path style="fill:#AB5E04;" d="M132.375,246.749c0,0,0.458-1.405,1.707-1.456c0.263-0.011,1.336,0.214,2.875,0.579
				c0.109,0.048,3.622,1.59,4.338,2.227c0.727,0.647-0.251,2.497-0.251,2.497l-5.014-2.962L132.375,246.749z"/>
		</g>
		<g style="opacity:0.44;">
			<path style="fill:#AB5E04;" d="M190.358,294.665l1.153-3.132c0,0,1.564,1.261,1.381,2.747c-0.012,0.101-0.058,0.295-0.129,0.559
				c-0.571,1.927-2.546,1.973-3.826,1.663c-1.105-0.268-6.875,16.376-8.429,20.924c-0.823-0.456-1.41-1.072-1.32-1.671
				c0.231-1.534,7.745-21.921,7.745-21.921L190.358,294.665z"/>
		</g>
		<g style="opacity:0.68;">
			<path style="fill:#E99247;" d="M186.934,293.836c0,0,2.98,0.135,1.506,3.124c-1.474,2.989-7.825,17.376-3.345,12.983
				c4.479-4.392,7.94-14.597,7.797-15.662c-0.142-1.066-1.381-2.747-1.381-2.747l-1.153,3.132L186.934,293.836z"/>
		</g>
		<g style="opacity:0.68;">
			<path style="fill:#E99247;" d="M160.804,253.202c1.3,1.153-15.909-3.206-19.51-5.103c-3.601-1.897-3.878-2.022-3.878-2.022
				S158.125,250.826,160.804,253.202z"/>
		</g>
	</g>
	<g style="opacity:0.85;">
		<path style="fill:#AB4247;" d="M164.994,301.125c-10.37,6.056-16.022,27.037-14.278,32.142c1.744,5.104,19.492,7.998,19.492,7.998
			s2.347-3.412,2.485-4.002C172.832,336.674,164.994,301.125,164.994,301.125z"/>
	</g>
	<g>
		<path style="fill:#E42320;" d="M176.482,317.253c0,0,5.103-10.957-1.412-16.839c-6.515-5.883-16.001,3.999-18.113,15.799
			c-1.986,11.099,2.723,21.791,2.723,21.791s15.089,4.769,28.14-0.748c13.05-5.517,14.937-17.669,7.457-22.255
			C187.796,310.414,176.482,317.253,176.482,317.253z"/>
		<path style="opacity:0.47;fill:#AB1965;" d="M195.235,331.133c4.448-4.515-11.688,7.566-25.161,1.09
			c-8.107-3.896-11.672-14.092-11.218-18.73c0.454-4.638-2.618,5.326-0.249,16.03c2.369,10.705,6.801,9.87,18.795,9.714
			C189.396,339.082,195.235,331.133,195.235,331.133z"/>
		<path style="opacity:0.36;fill:#AB1965;" d="M179.798,335.885c-5.922,1.215-9.94,1.952-14.132-4.001
			c-4.192-5.953,0.832-0.226,5.627,1.265C176.089,334.639,182.687,335.292,179.798,335.885z"/>
		<path style="fill:#E04565;" d="M176.702,311.289c2.543-9.433-6.577-12.942-10.618-9.974c-4.041,2.968-1.298,10.109,4.042,11.34
			C175.466,313.885,175.27,316.603,176.702,311.289z"/>
		<path style="fill:#E42320;" d="M198.597,322.691c0.772-6.704-7.971-10.289-14.302-8.263c-6.331,2.026-10.233,4.054-7.623,4.546
			c2.61,0.492,6.253,2.611,10.785,6.38C191.988,329.125,197.745,330.09,198.597,322.691z"/>
		<path style="fill:#FFE8E0;" d="M193.522,316.9c1.526,3.349-7.752,0.953-9.57-0.397C182.133,315.153,191.433,312.317,193.522,316.9
			z"/>
		<path style="fill:#FFE8E0;" d="M176.021,305.977c0.163-3.191-4.089-4.992-6.33-4.3
			C167.45,302.368,175.925,307.861,176.021,305.977z"/>
		<path style="fill:#FFE8E0;" d="M182.522,317.498c2.557,0.447-0.178-1.56-0.907-1.186
			C180.887,316.686,181.208,317.269,182.522,317.498z"/>
		<path style="fill:#ED1C24;" d="M194.325,316.882c-0.144,7.916-22.063,16.425-25.671,12.012c-5.058-6.188-2.053-29.951,5.54-26.647
			c6.297,2.74,1.418,14.434,0.98,16.004c-0.438,1.57,4.526-3.902,12.313-4.374C195.273,313.404,194.325,316.882,194.325,316.882z"/>
	</g>
	<g>
		<path style="fill:#1E1B58;" d="M189.154,336.655c0.423,4.169,0.453,7.35-1.637,8.801c-5.132,3.562-15.281-13.097-15.281-13.097
			s-0.868,0.669-3.289-1.627c-2.421-2.296-3.358-4.194-0.413-4.308c0,0-0.86-1.457,0.744-1.884c1.604-0.427,2.245-0.312,2.58,0.467
			c0.335,0.78,0.939,2.678,1.499,4.486c0,0,0.939,0.147,1.402-0.85c0.463-0.997-0.215-1.645,0.787-2.265
			c1.002-0.62,1.968-0.3,2.444,0.548c0.476,0.848,0.285,2.398-1.202,4.65c-1.487,2.252-3.728,0.945-3.728,0.945
			s9.346,14.378,13.437,11.088c1.344-1.081,0.745-3.687,0.105-5.871L189.154,336.655z"/>
		<path style="fill:#B60113;" d="M168.535,326.424c0,0,0.904,2.594,2.869,4.18C171.404,330.604,168.25,329.868,168.535,326.424z"/>
	</g>
	<g>
		<path style="fill:#1E1B58;" d="M97.228,288.704c23.301,19.796,58.937,30.707,58.937,30.707s-0.46,0.994,2.314,2.847
			c2.774,1.853,4.833,2.347,4.292-0.55c0,0,1.611,0.517,1.673-1.142c0.062-1.659-0.192-2.259-1.026-2.413
			c-0.834-0.155-2.819-0.323-4.706-0.47c0,0-0.351-0.883,0.519-1.555c0.87-0.672,1.652-0.154,2.035-1.269
			c0.383-1.114-0.143-1.986-1.075-2.262c-0.932-0.277-2.401,0.253-4.269,2.201c-1.868,1.948-0.097,3.845-0.097,3.845
			s-37.871-12.332-57.425-34.815L97.228,288.704z"/>
		<path style="fill:#B60113;" d="M162.771,321.708c0,0-2.73-0.308-4.711-1.874C158.06,319.834,159.476,322.748,162.771,321.708z"/>
	</g>
</g>
<g>
	<g>
		<g>
			<polygon style="fill:#E42320;" points="159.522,270.96 159.211,272.303 158.627,272.826 158.614,272.878 158.884,273.653 
				158.61,274.784 158.068,273.735 157.404,274.417 155.578,273.975 155.485,272.979 157.226,273.4 157.967,272.743 
				157.982,272.682 157.631,271.728 155.892,271.306 155.89,271.306 156.429,270.462 156.429,270.462 158.217,270.895 
				158.497,271.821 			"/>
			<path style="fill:#E42320;" d="M157.748,266.421c0.374,0.269,0.843,0.263,1.223-0.015l0.035-0.027l0.029,0.032
				c0.273,0.294,0.667,0.401,1.052,0.283c0.386-0.117,0.676-0.432,0.775-0.84l0.372-1.535l-3.485-0.844l-0.423,1.746
				C157.213,265.692,157.374,266.151,157.748,266.421z M160.357,264.892l-0.192,0.793c-0.049,0.204-0.246,0.332-0.437,0.285
				c-0.192-0.047-0.307-0.249-0.258-0.454l0.192-0.793L160.357,264.892z M158.963,264.555l-0.243,1.004
				c-0.05,0.205-0.246,0.333-0.438,0.286c-0.191-0.046-0.307-0.25-0.257-0.455l0.243-1.004L158.963,264.555z"/>
			<path style="fill:#E42320;" d="M160.039,269.144c0.248-1.023-0.333-2.043-1.294-2.276c-0.961-0.233-1.945,0.409-2.192,1.432
				c-0.247,1.021,0.333,2.043,1.295,2.276C158.808,270.808,159.792,270.166,160.039,269.144z M157.214,268.46
				c0.154-0.635,0.764-1.034,1.361-0.889c0.596,0.144,0.957,0.778,0.803,1.413c-0.154,0.635-0.764,1.033-1.36,0.889
				C157.421,269.728,157.061,269.095,157.214,268.46z"/>
		</g>
	</g>
	<path style="fill:#1E1B58;" d="M146.889,271.933l2.132,0.516l2.532-10.458l-4.985-1.207c-1.781-0.431-3.574,0.641-3.998,2.389
		l-1.764,7.287l2.134,0.517l0.868-3.584l3.948,0.956L146.889,271.933z M144.316,265.298l0.293-1.209
		c0.197-0.813,1.03-1.311,1.859-1.111l2.447,0.592l-0.65,2.683L144.316,265.298z"/>
	<path style="fill:#1E1B58;" d="M125.288,258.315l2.24,0.535l-1.959,7.914l-2.157-0.532L125.288,258.315z M128.806,267.548
		l2.375,0.575l-1.384-5.922l3.939-4.632l-2.375-0.575l-3.94,4.631L128.806,267.548z"/>
	<path style="fill:#1E1B58;" d="M149.425,261.464l2.188,0.53l-2.523,10.419l-2.188-0.53L149.425,261.464z M152.456,273.228
		l2.436,0.59l-1.468-5.871l3.991-4.549l-2.436-0.59l-3.991,4.549L152.456,273.228z"/>
	<path style="fill:#1E1B58;" d="M139.441,259.022l-4.716-1.142l-2.539,10.485l2.134,0.517l0.87-3.593l2.582,0.625
		c1.929,0.467,3.874-0.698,4.334-2.598C142.566,261.417,141.37,259.49,139.441,259.022z M138.281,263.813l-2.582-0.625l0.651-2.69
		l2.582,0.625c0.754,0.182,1.219,0.934,1.04,1.676C139.793,263.541,139.035,263.996,138.281,263.813z"/>
	<path style="fill:#1E1B58;" d="M122.104,254.824l-4.716-1.142l-2.532,10.458l2.133,0.517l0.868-3.584l2.583,0.625
		c1.929,0.467,3.872-0.694,4.331-2.59C125.229,257.214,124.033,255.291,122.104,254.824z M120.947,259.603l-2.583-0.625l0.65-2.683
		l2.583,0.625c0.754,0.182,1.22,0.932,1.041,1.672C122.458,259.332,121.7,259.785,120.947,259.603z"/>
	<polygon style="fill:#FDC600;" points="134.276,257.7 130.338,262.325 131.724,268.24 	"/>
	
		<rect x="125.637" y="255.928" transform="matrix(0.2353 -0.9719 0.9719 0.2353 -152.9139 319.7787)" style="fill:#1E1B58;" width="2.266" height="2.284"/>
</g>
<g>
	<path style="fill:#FDC600;stroke:#1E1B58;stroke-miterlimit:10;" d="M104.513,320.363l21.8,5.279
		c2.307,0.559,4.63-0.859,5.189-3.166l1.577-6.514c0.559-2.307-0.859-4.63-3.166-5.189l-21.8-5.279
		c-2.307-0.559-4.63,0.859-5.189,3.166l-1.577,6.514C100.788,317.481,102.206,319.804,104.513,320.363z"/>
</g>
<g>
	
		<rect x="113.611" y="312.594" transform="matrix(-0.2353 0.9719 -0.9719 -0.2353 444.8021 275.8174)" style="fill:#1E1B58;" width="0.579" height="0.579"/>
	
		<rect x="113.066" y="314.845" transform="matrix(-0.2353 0.9719 -0.9719 -0.2353 446.3164 279.1278)" style="fill:#1E1B58;" width="0.579" height="0.579"/>
	
		<rect x="112.912" y="313.021" transform="matrix(-0.2353 0.9719 -0.9719 -0.2353 444.3531 277.0236)" style="fill:#1E1B58;" width="0.579" height="0.579"/>
	
		<rect x="113.475" y="313.157" transform="matrix(-0.2353 0.9719 -0.9719 -0.2353 445.1807 276.645)" style="fill:#1E1B58;" width="0.579" height="0.579"/>
	
		<rect x="113.244" y="310.42" transform="matrix(-0.2353 0.9719 -0.9719 -0.2353 442.2357 273.4888)" style="fill:#1E1B58;" width="0.579" height="0.579"/>
	
		<rect x="112.64" y="314.146" transform="matrix(-0.2353 0.9719 -0.9719 -0.2353 445.1102 278.6788)" style="fill:#1E1B58;" width="0.579" height="0.579"/>
	
		<rect x="112.504" y="314.709" transform="matrix(-0.2353 0.9719 -0.9719 -0.2353 445.4888 279.5063)" style="fill:#1E1B58;" width="0.579" height="0.579"/>
	
		<rect x="112.486" y="312.322" transform="matrix(-0.2353 0.9719 -0.9719 -0.2353 443.1469 276.5746)" style="fill:#1E1B58;" width="0.579" height="0.579"/>
	
		<rect x="112.213" y="313.447" transform="matrix(-0.2353 0.9719 -0.9719 -0.2353 443.9041 278.2298)" style="fill:#1E1B58;" width="0.579" height="0.579"/>
	
		<rect x="111.941" y="314.573" transform="matrix(-0.2353 0.9719 -0.9719 -0.2353 444.6613 279.8849)" style="fill:#1E1B58;" width="0.579" height="0.579"/>
	<path style="fill:#1E1B58;" d="M114.523,311.545l0.136-0.563l0.136-0.563l0.136-0.563l-0.563-0.136l-0.563-0.136l-0.563-0.136
		l-0.563-0.136l-0.136,0.563l-0.136,0.563L112.272,311l-0.136,0.563l0.563,0.136l0.563,0.136l0.563,0.136l0.563,0.136
		L114.523,311.545z M113.397,311.272l-0.563-0.136l0.136-0.563l0.136-0.563l0.563,0.136l0.563,0.136l-0.136,0.563l-0.136,0.563
		L113.397,311.272z"/>
	
		<rect x="111.651" y="313.311" transform="matrix(-0.2353 0.9719 -0.9719 -0.2353 443.0765 278.6083)" style="fill:#1E1B58;" width="0.579" height="0.579"/>
	
		<rect x="111.514" y="313.874" transform="matrix(-0.2353 0.9719 -0.9719 -0.2353 443.4551 279.4359)" style="fill:#1E1B58;" width="0.579" height="0.579"/>
	<g>
		<path style="fill:#1E1B58;" d="M113.024,317.735l0.136-0.563l0.136-0.563l0.136-0.563l-0.563-0.136l-0.563-0.136l-0.563-0.136
			l-0.563-0.136l-0.136,0.563l-0.136,0.563l-0.136,0.563l-0.136,0.563l0.563,0.136l0.563,0.136l0.563,0.136l0.563,0.136
			L113.024,317.735z M111.899,317.462l-0.563-0.136l0.136-0.563l0.136-0.563l0.563,0.136l0.563,0.136l-0.136,0.563l-0.136,0.563
			L111.899,317.462z"/>
		
			<rect x="111.745" y="316.61" transform="matrix(0.2353 -0.9719 0.9719 0.2353 -222.3305 351.2071)" style="fill:#1E1B58;" width="0.579" height="0.579"/>
	</g>
	
		<rect x="111.36" y="312.049" transform="matrix(-0.2353 0.9719 -0.9719 -0.2353 441.4918 277.3318)" style="fill:#1E1B58;" width="0.579" height="0.579"/>
	
		<rect x="110.815" y="314.3" transform="matrix(-0.2353 0.9719 -0.9719 -0.2353 443.0061 280.6421)" style="fill:#1E1B58;" width="0.579" height="0.579"/>
	
		<rect x="111.479" y="309.099" transform="matrix(-0.2353 0.9719 -0.9719 -0.2353 438.7713 273.5725)" style="fill:#1E1B58;" width="0.579" height="0.579"/>
	
		<rect x="111.343" y="309.662" transform="matrix(-0.2353 0.9719 -0.9719 -0.2353 439.1499 274.4001)" style="fill:#1E1B58;" width="0.579" height="0.579"/>
	
		<rect x="111.207" y="310.225" transform="matrix(-0.2353 0.9719 -0.9719 -0.2353 439.5285 275.2276)" style="fill:#1E1B58;" width="0.579" height="0.579"/>
	
		<rect x="110.934" y="311.35" transform="matrix(-0.2353 0.9719 -0.9719 -0.2353 440.2856 276.8828)" style="fill:#1E1B58;" width="0.579" height="0.579"/>
	
		<rect x="110.525" y="313.038" transform="matrix(-0.2353 0.9719 -0.9719 -0.2353 441.4214 279.3655)" style="fill:#1E1B58;" width="0.579" height="0.579"/>
	
		<rect x="110.389" y="313.601" transform="matrix(-0.2353 0.9719 -0.9719 -0.2353 441.8 280.1931)" style="fill:#1E1B58;" width="0.579" height="0.579"/>
	
		<rect x="110.116" y="314.726" transform="matrix(-0.2353 0.9719 -0.9719 -0.2353 442.5571 281.8482)" style="fill:#1E1B58;" width="0.579" height="0.579"/>
	
		<rect x="109.98" y="315.289" transform="matrix(-0.2353 0.9719 -0.9719 -0.2353 442.9357 282.6758)" style="fill:#1E1B58;" width="0.579" height="0.579"/>
	
		<rect x="109.571" y="316.977" transform="matrix(-0.2353 0.9719 -0.9719 -0.2353 444.0714 285.1585)" style="fill:#1E1B58;" width="0.579" height="0.579"/>
	
		<rect x="110.78" y="309.526" transform="matrix(-0.2353 0.9719 -0.9719 -0.2353 438.3223 274.7787)" style="fill:#1E1B58;" width="0.579" height="0.579"/>
	
		<rect x="110.508" y="310.651" transform="matrix(-0.2353 0.9719 -0.9719 -0.2353 439.0795 276.4338)" style="fill:#1E1B58;" width="0.579" height="0.579"/>
	
		<rect x="110.371" y="311.214" transform="matrix(-0.2353 0.9719 -0.9719 -0.2353 439.4581 277.2614)" style="fill:#1E1B58;" width="0.579" height="0.579"/>
	
		<rect x="110.235" y="311.777" transform="matrix(-0.2353 0.9719 -0.9719 -0.2353 439.8366 278.0889)" style="fill:#1E1B58;" width="0.579" height="0.579"/>
	
		<rect x="109.963" y="312.902" transform="matrix(-0.2353 0.9719 -0.9719 -0.2353 440.5938 279.7441)" style="fill:#1E1B58;" width="0.579" height="0.579"/>
	
		<rect x="109.69" y="314.027" transform="matrix(-0.2353 0.9719 -0.9719 -0.2353 441.351 281.3992)" style="fill:#1E1B58;" width="0.579" height="0.579"/>
	
		<rect x="109.281" y="315.716" transform="matrix(-0.2353 0.9719 -0.9719 -0.2353 442.4867 283.8819)" style="fill:#1E1B58;" width="0.579" height="0.579"/>
	
		<rect x="110.354" y="308.827" transform="matrix(-0.2353 0.9719 -0.9719 -0.2353 437.1161 274.3297)" style="fill:#1E1B58;" width="0.579" height="0.579"/>
	
		<rect x="110.217" y="309.39" transform="matrix(-0.2353 0.9719 -0.9719 -0.2353 437.4948 275.1572)" style="fill:#1E1B58;" width="0.579" height="0.579"/>
	
		<rect x="110.081" y="309.952" transform="matrix(-0.2353 0.9719 -0.9719 -0.2353 437.8733 275.9848)" style="fill:#1E1B58;" width="0.579" height="0.579"/>
	
		<rect x="109.672" y="311.64" transform="matrix(-0.2353 0.9719 -0.9719 -0.2353 439.0091 278.4675)" style="fill:#1E1B58;" width="0.579" height="0.579"/>
	
		<rect x="109.536" y="312.203" transform="matrix(-0.2353 0.9719 -0.9719 -0.2353 439.3876 279.2951)" style="fill:#1E1B58;" width="0.579" height="0.579"/>
	
		<rect x="109.264" y="313.328" transform="matrix(-0.2353 0.9719 -0.9719 -0.2353 440.1448 280.9502)" style="fill:#1E1B58;" width="0.579" height="0.579"/>
	
		<rect x="109.127" y="313.891" transform="matrix(-0.2353 0.9719 -0.9719 -0.2353 440.5234 281.7778)" style="fill:#1E1B58;" width="0.579" height="0.579"/>
	
		<rect x="108.991" y="314.454" transform="matrix(-0.2353 0.9719 -0.9719 -0.2353 440.902 282.6054)" style="fill:#1E1B58;" width="0.579" height="0.579"/>
	
		<rect x="108.446" y="316.705" transform="matrix(-0.2353 0.9719 -0.9719 -0.2353 442.4163 285.9157)" style="fill:#1E1B58;" width="0.579" height="0.579"/>
	
		<rect x="109.791" y="308.691" transform="matrix(-0.2353 0.9719 -0.9719 -0.2353 436.2886 274.7082)" style="fill:#1E1B58;" width="0.579" height="0.579"/>
	
		<rect x="109.518" y="309.816" transform="matrix(-0.2353 0.9719 -0.9719 -0.2353 437.0457 276.3634)" style="fill:#1E1B58;" width="0.579" height="0.579"/>
	
		<rect x="109.382" y="310.379" transform="matrix(-0.2353 0.9719 -0.9719 -0.2353 437.4243 277.1909)" style="fill:#1E1B58;" width="0.579" height="0.579"/>
	
		<rect x="108.837" y="312.63" transform="matrix(-0.2353 0.9719 -0.9719 -0.2353 438.9387 280.5013)" style="fill:#1E1B58;" width="0.579" height="0.579"/>
	
		<rect x="108.701" y="313.192" transform="matrix(-0.2353 0.9719 -0.9719 -0.2353 439.3172 281.3288)" style="fill:#1E1B58;" width="0.579" height="0.579"/>
	
		<rect x="108.428" y="314.318" transform="matrix(-0.2353 0.9719 -0.9719 -0.2353 440.0744 282.9839)" style="fill:#1E1B58;" width="0.579" height="0.579"/>
	
		<rect x="108.292" y="314.88" transform="matrix(-0.2353 0.9719 -0.9719 -0.2353 440.453 283.8115)" style="fill:#1E1B58;" width="0.579" height="0.579"/>
	
		<rect x="108.156" y="315.443" transform="matrix(-0.2353 0.9719 -0.9719 -0.2353 440.8315 284.6391)" style="fill:#1E1B58;" width="0.579" height="0.579"/>
	
		<rect x="108.719" y="315.579" transform="matrix(-0.2353 0.9719 -0.9719 -0.2353 441.6591 284.2605)" style="fill:#1E1B58;" width="0.579" height="0.579"/>
	
		<rect x="108.02" y="316.006" transform="matrix(-0.2353 0.9719 -0.9719 -0.2353 441.2101 285.4667)" style="fill:#1E1B58;" width="0.579" height="0.579"/>
	
		<rect x="107.883" y="316.569" transform="matrix(-0.2353 0.9719 -0.9719 -0.2353 441.5887 286.2943)" style="fill:#1E1B58;" width="0.579" height="0.579"/>
	
		<rect x="109.092" y="309.117" transform="matrix(-0.2353 0.9719 -0.9719 -0.2353 435.8396 275.9144)" style="fill:#1E1B58;" width="0.579" height="0.579"/>
	
		<rect x="108.956" y="309.68" transform="matrix(-0.2353 0.9719 -0.9719 -0.2353 436.2182 276.7419)" style="fill:#1E1B58;" width="0.579" height="0.579"/>
	
		<rect x="108.683" y="310.805" transform="matrix(-0.2353 0.9719 -0.9719 -0.2353 436.9753 278.3971)" style="fill:#1E1B58;" width="0.579" height="0.579"/>
	
		<rect x="108.002" y="313.619" transform="matrix(-0.2353 0.9719 -0.9719 -0.2353 438.8682 282.535)" style="fill:#1E1B58;" width="0.579" height="0.579"/>
	
		<rect x="107.866" y="314.181" transform="matrix(-0.2353 0.9719 -0.9719 -0.2353 439.2468 283.3625)" style="fill:#1E1B58;" width="0.579" height="0.579"/>
	
		<rect x="107.593" y="315.307" transform="matrix(-0.2353 0.9719 -0.9719 -0.2353 440.004 285.0177)" style="fill:#1E1B58;" width="0.579" height="0.579"/>
	
		<rect x="107.321" y="316.432" transform="matrix(-0.2353 0.9719 -0.9719 -0.2353 440.7611 286.6728)" style="fill:#1E1B58;" width="0.579" height="0.579"/>
	
		<rect x="107.984" y="311.232" transform="matrix(-0.2353 0.9719 -0.9719 -0.2353 436.5263 279.6032)" style="fill:#1E1B58;" width="0.579" height="0.579"/>
	
		<rect x="107.712" y="312.357" transform="matrix(-0.2353 0.9719 -0.9719 -0.2353 437.2835 281.2584)" style="fill:#1E1B58;" width="0.579" height="0.579"/>
	
		<rect x="107.303" y="314.045" transform="matrix(-0.2353 0.9719 -0.9719 -0.2353 438.4193 283.7411)" style="fill:#1E1B58;" width="0.579" height="0.579"/>
	
		<rect x="107.167" y="314.608" transform="matrix(-0.2353 0.9719 -0.9719 -0.2353 438.7978 284.5687)" style="fill:#1E1B58;" width="0.579" height="0.579"/>
	
		<rect x="106.894" y="315.733" transform="matrix(-0.2353 0.9719 -0.9719 -0.2353 439.555 286.2238)" style="fill:#1E1B58;" width="0.579" height="0.579"/>
	
		<rect x="106.758" y="316.296" transform="matrix(-0.2353 0.9719 -0.9719 -0.2353 439.9336 287.0514)" style="fill:#1E1B58;" width="0.579" height="0.579"/>
	
		<rect x="107.421" y="311.095" transform="matrix(-0.2353 0.9719 -0.9719 -0.2353 435.6988 279.9818)" style="fill:#1E1B58;" width="0.579" height="0.579"/>
	
		<rect x="107.285" y="311.658" transform="matrix(-0.2353 0.9719 -0.9719 -0.2353 436.0774 280.8094)" style="fill:#1E1B58;" width="0.579" height="0.579"/>
	
		<rect x="107.149" y="312.221" transform="matrix(-0.2353 0.9719 -0.9719 -0.2353 436.4559 281.637)" style="fill:#1E1B58;" width="0.579" height="0.579"/>
	
		<rect x="106.876" y="313.346" transform="matrix(-0.2353 0.9719 -0.9719 -0.2353 437.2131 283.2921)" style="fill:#1E1B58;" width="0.579" height="0.579"/>
	
		<rect x="106.74" y="313.909" transform="matrix(-0.2353 0.9719 -0.9719 -0.2353 437.5917 284.1197)" style="fill:#1E1B58;" width="0.579" height="0.579"/>
	
		<rect x="106.468" y="315.034" transform="matrix(-0.2353 0.9719 -0.9719 -0.2353 438.3488 285.7748)" style="fill:#1E1B58;" width="0.579" height="0.579"/>
	
		<rect x="106.586" y="312.085" transform="matrix(-0.2353 0.9719 -0.9719 -0.2353 435.6284 282.0156)" style="fill:#1E1B58;" width="0.579" height="0.579"/>
	
		<rect x="106.45" y="312.647" transform="matrix(-0.2353 0.9719 -0.9719 -0.2353 436.0069 282.8431)" style="fill:#1E1B58;" width="0.579" height="0.579"/>
	
		<rect x="106.177" y="313.773" transform="matrix(-0.2353 0.9719 -0.9719 -0.2353 436.7641 284.4983)" style="fill:#1E1B58;" width="0.579" height="0.579"/>
	
		<rect x="106.041" y="314.335" transform="matrix(-0.2353 0.9719 -0.9719 -0.2353 437.1427 285.3258)" style="fill:#1E1B58;" width="0.579" height="0.579"/>
	
		<rect x="105.905" y="314.898" transform="matrix(-0.2353 0.9719 -0.9719 -0.2353 437.5213 286.1534)" style="fill:#1E1B58;" width="0.579" height="0.579"/>
	
		<rect x="105.632" y="316.023" transform="matrix(-0.2353 0.9719 -0.9719 -0.2353 438.2784 287.8086)" style="fill:#1E1B58;" width="0.579" height="0.579"/>
	
		<rect x="106.296" y="310.823" transform="matrix(-0.2353 0.9719 -0.9719 -0.2353 434.0436 280.739)" style="fill:#1E1B58;" width="0.579" height="0.579"/>
	
		<rect x="106.16" y="311.386" transform="matrix(-0.2353 0.9719 -0.9719 -0.2353 434.4222 281.5666)" style="fill:#1E1B58;" width="0.579" height="0.579"/>
	
		<rect x="105.887" y="312.511" transform="matrix(-0.2353 0.9719 -0.9719 -0.2353 435.1794 283.2217)" style="fill:#1E1B58;" width="0.579" height="0.579"/>
	
		<rect x="105.751" y="313.074" transform="matrix(-0.2353 0.9719 -0.9719 -0.2353 435.558 284.0493)" style="fill:#1E1B58;" width="0.579" height="0.579"/>
	
		<rect x="105.479" y="314.199" transform="matrix(-0.2353 0.9719 -0.9719 -0.2353 436.3151 285.7044)" style="fill:#1E1B58;" width="0.579" height="0.579"/>
	
		<rect x="105.206" y="315.324" transform="matrix(-0.2353 0.9719 -0.9719 -0.2353 437.0723 287.3596)" style="fill:#1E1B58;" width="0.579" height="0.579"/>
	<g>
		
			<rect x="107.054" y="308.921" transform="matrix(0.2353 -0.9719 0.9719 0.2353 -218.4448 340.7687)" style="fill:#1E1B58;" width="0.579" height="0.579"/>
		<path style="fill:#1E1B58;" d="M108.333,310.046l0.136-0.563l0.136-0.563l0.136-0.563l-0.563-0.136l-0.563-0.136l-0.563-0.136
			l-0.563-0.136l-0.136,0.563l-0.136,0.563l-0.136,0.563l-0.136,0.563l0.563,0.136l0.563,0.136l0.563,0.136l0.563,0.136
			L108.333,310.046z M107.208,309.774l-0.563-0.136l0.136-0.563l0.136-0.563l0.563,0.136l0.563,0.136l-0.136,0.563l-0.136,0.563
			L107.208,309.774z"/>
	</g>
	
		<rect x="105.733" y="310.687" transform="matrix(-0.2353 0.9719 -0.9719 -0.2353 433.2161 281.1176)" style="fill:#1E1B58;" width="0.579" height="0.579"/>
	
		<rect x="105.461" y="311.812" transform="matrix(-0.2353 0.9719 -0.9719 -0.2353 433.9732 282.7727)" style="fill:#1E1B58;" width="0.579" height="0.579"/>
	
		<rect x="105.188" y="312.937" transform="matrix(-0.2353 0.9719 -0.9719 -0.2353 434.7304 284.4279)" style="fill:#1E1B58;" width="0.579" height="0.579"/>
	
		<rect x="104.78" y="314.626" transform="matrix(-0.2353 0.9719 -0.9719 -0.2353 435.8661 286.9106)" style="fill:#1E1B58;" width="0.579" height="0.579"/>
	
		<rect x="104.643" y="315.188" transform="matrix(-0.2353 0.9719 -0.9719 -0.2353 436.2447 287.7382)" style="fill:#1E1B58;" width="0.579" height="0.579"/>
	
		<rect x="104.507" y="315.751" transform="matrix(-0.2353 0.9719 -0.9719 -0.2353 436.6233 288.5657)" style="fill:#1E1B58;" width="0.579" height="0.579"/>
</g>
<g>
	<path style="fill:#1E1B58;" d="M118.383,313.584c0.148,0.149,0.38,0.3,0.648,0.365c0.397,0.096,0.679-0.057,0.753-0.36
		c0.068-0.281-0.054-0.48-0.421-0.734c-0.448-0.293-0.69-0.62-0.587-1.043c0.113-0.468,0.585-0.722,1.169-0.58
		c0.307,0.074,0.513,0.2,0.628,0.308l-0.184,0.29c-0.085-0.077-0.264-0.215-0.536-0.281c-0.41-0.099-0.625,0.108-0.675,0.313
		c-0.068,0.281,0.081,0.463,0.457,0.724c0.461,0.319,0.66,0.627,0.553,1.068c-0.112,0.464-0.553,0.781-1.261,0.61
		c-0.29-0.07-0.586-0.232-0.72-0.377L118.383,313.584z"/>
	<path style="fill:#1E1B58;" d="M122.642,315.012c-0.16,0.037-0.462,0.039-0.828-0.049c-0.847-0.205-1.355-0.894-1.116-1.879
		c0.228-0.94,1.019-1.423,1.951-1.198c0.374,0.091,0.591,0.228,0.681,0.306l-0.17,0.294c-0.13-0.107-0.326-0.211-0.576-0.272
		c-0.704-0.17-1.281,0.166-1.472,0.955c-0.178,0.735,0.131,1.31,0.862,1.487c0.236,0.057,0.489,0.066,0.663,0.028L122.642,315.012z"
		/>
	<path style="fill:#1E1B58;" d="M123.837,314.405l-0.541,0.869l-0.401-0.097l1.748-2.757l0.468,0.113l0.298,3.252l-0.414-0.1
		l-0.092-1.023L123.837,314.405z M124.895,314.34l-0.085-0.936c-0.019-0.212-0.021-0.401-0.023-0.586l-0.009-0.002
		c-0.088,0.167-0.181,0.338-0.283,0.507l-0.505,0.798L124.895,314.34z"/>
	<path style="fill:#1E1B58;" d="M125.85,315.892l0.727-3.004l0.423,0.103l0.595,1.753c0.138,0.406,0.235,0.765,0.303,1.107
		l0.01-0.002c0.062-0.41,0.141-0.777,0.254-1.245l0.304-1.257l0.365,0.088l-0.727,3.004l-0.392-0.095l-0.585-1.755
		c-0.128-0.385-0.246-0.777-0.319-1.139l-0.014,0.001c-0.069,0.384-0.148,0.747-0.269,1.246l-0.311,1.283L125.85,315.892z"/>
</g>
<g>
	<path style="fill:#1E1B58;" d="M121.357,318.58c0.12-0.643,0.264-1.416,0.408-1.982l-0.02-0.005
		c-0.285,0.496-0.611,1.017-0.993,1.59l-1.338,2.014l-0.446-0.108l-0.211-2.346c-0.061-0.694-0.101-1.326-0.098-1.897l-0.013-0.003
		c-0.151,0.564-0.369,1.319-0.575,1.991l-0.594,1.922l-0.561-0.136l1.42-4.475l0.75,0.182l0.244,2.39
		c0.053,0.606,0.088,1.144,0.088,1.644l0.02,0.005c0.226-0.431,0.509-0.892,0.851-1.417l1.344-2.005l0.75,0.182l-0.819,4.621
		l-0.574-0.139L121.357,318.58z"/>
	<path style="fill:#1E1B58;" d="M125.34,319.401l-1.769-0.428l-0.397,1.641l1.972,0.478l-0.119,0.493l-2.56-0.62l1.102-4.552
		l2.458,0.595l-0.119,0.493l-1.871-0.453l-0.348,1.439l1.769,0.428L125.34,319.401z"/>
	<path style="fill:#1E1B58;" d="M125.738,321.392c0.059-0.243,0.27-0.378,0.5-0.322c0.243,0.059,0.356,0.272,0.297,0.515
		c-0.057,0.236-0.257,0.381-0.5,0.322C125.799,321.85,125.681,321.629,125.738,321.392z M126.14,320.467l0.69-3.265l0.648,0.157
		l-0.879,3.219L126.14,320.467z"/>
</g>
<g>
	<path style="fill:#AB5E47;" d="M144.805,298.757c-1.617-4.481,4.936,5.935,7.031,2.529c0,0-0.88,2.461-2.294,2.869
		C148.128,304.564,145.669,301.151,144.805,298.757z"/>
	<g>
		<path style="fill:#380000;" d="M158.225,284.678c-3.824-1.296-5.939,4.243-5.252,10.122c0.687,5.88,7.554,6.465,9.22,2.463
			C163.86,293.261,162.41,286.096,158.225,284.678z"/>
	</g>
	<g style="opacity:0.42;">
		<path style="fill:#AB5E47;" d="M158.149,285.587c-3.824-1.296-5.939,4.243-5.252,10.122c0.687,5.88,7.554,6.465,9.22,2.463
			C163.784,294.17,162.334,287.005,158.149,285.587z"/>
	</g>
	<g>
		<g>
			<path style="fill:#380000;" d="M142.748,278.39c-6.032-4.212-11.391,1.959-11.225,8.404c0.169,6.552,9.371,11.372,12.712,6.623
				C147.548,288.709,146.783,281.899,142.748,278.39z"/>
		</g>
		<g style="opacity:0.42;">
			<path style="fill:#AB5E47;" d="M142.375,279.491c-6.443-4.637-11.403,1.955-11.239,8.416c0.167,6.568,9.376,11.406,12.721,6.648
				C147.176,289.837,147.125,282.909,142.375,279.491z"/>
		</g>
		<g>
			<defs>
				<path id="SVGID_00000178885860278736074030000010973454520830563463_" d="M142.423,279.349
					c-5.88-3.947-11.279,1.608-11.038,7.843c0.245,6.335,9.426,11.226,12.685,6.724
					C147.304,289.449,147.173,282.764,142.423,279.349z"/>
			</defs>
			<clipPath id="SVGID_00000060014670420211724520000002431938376541201851_">
				<use xlink:href="#SVGID_00000178885860278736074030000010973454520830563463_"  style="overflow:visible;"/>
			</clipPath>
			
				<linearGradient id="SVGID_00000048499510298727512420000003431071771563316383_" gradientUnits="userSpaceOnUse" x1="-179.1814" y1="-3.8325" x2="-179.1814" y2="-20.8028" gradientTransform="matrix(-0.9491 -0.4638 -0.296 0.9139 -34.9652 215.3437)">
				<stop  offset="0" style="stop-color:#FFFFFF"/>
				<stop  offset="0.2386" style="stop-color:#FAFBFD"/>
				<stop  offset="0.5042" style="stop-color:#EDEEF7"/>
				<stop  offset="0.7817" style="stop-color:#D7D9ED"/>
				<stop  offset="1" style="stop-color:#C0C4E2"/>
			</linearGradient>
			
				<path style="clip-path:url(#SVGID_00000060014670420211724520000002431938376541201851_);fill:url(#SVGID_00000048499510298727512420000003431071771563316383_);" d="
				M142.423,279.349c-6.443-4.632-11.279,1.608-11.038,7.843c0.245,6.335,9.426,11.226,12.685,6.724
				C147.304,289.449,147.173,282.764,142.423,279.349z"/>
			<g style="clip-path:url(#SVGID_00000060014670420211724520000002431938376541201851_);">
				<g>
					
						<linearGradient id="SVGID_00000151543898545419916620000012013303864985774989_" gradientUnits="userSpaceOnUse" x1="-9.7493" y1="-203.7003" x2="-7.2009" y2="-213.6504" gradientTransform="matrix(-0.8767 -0.9749 -0.7897 0.6505 -36.5055 413.8823)">
						<stop  offset="0" style="stop-color:#BFC463"/>
						<stop  offset="0.1311" style="stop-color:#91994B"/>
						<stop  offset="0.2747" style="stop-color:#667034"/>
						<stop  offset="0.414" style="stop-color:#445022"/>
						<stop  offset="0.5459" style="stop-color:#2C3A15"/>
						<stop  offset="0.6673" style="stop-color:#1D2C0E"/>
						<stop  offset="0.7683" style="stop-color:#18270B"/>
					</linearGradient>
					<path style="fill:url(#SVGID_00000151543898545419916620000012013303864985774989_);" d="M132.895,281.913
						c-2.057,1.816-2.523,5.353-1.022,7.911c1.512,2.578,4.433,3.167,6.507,1.306c2.064-1.853,2.484-5.416,0.955-7.948
						C137.818,280.669,134.943,280.106,132.895,281.913z"/>
					
						<linearGradient id="SVGID_00000066474557055534575250000002763834955354289793_" gradientUnits="userSpaceOnUse" x1="73.3378" y1="-176.9549" x2="73.3378" y2="-187.5785" gradientTransform="matrix(-0.5117 -0.9257 -1.0231 0.4593 -15.523 445.0273)">
						<stop  offset="0.2317" style="stop-color:#000000"/>
						<stop  offset="0.3386" style="stop-color:#020804"/>
						<stop  offset="0.5086" style="stop-color:#081F10"/>
						<stop  offset="0.7203" style="stop-color:#114523"/>
						<stop  offset="0.9635" style="stop-color:#1D793E"/>
						<stop  offset="1" style="stop-color:#1F8142"/>
					</linearGradient>
					<path style="opacity:0.32;fill:url(#SVGID_00000066474557055534575250000002763834955354289793_);" d="M131.806,287.402
						c-2.883,1.291-4.524,5.014-3.654,8.341c0.879,3.358,3.977,5.026,6.905,3.699c2.922-1.324,4.53-5.111,3.605-8.434
						C137.747,287.717,134.683,286.114,131.806,287.402z"/>
				</g>
				<path style="opacity:0.37;fill:#8486EA;" d="M131.434,285.587c2.002-9.343,17.345-7.473,14.343,4.873
					c-4.936,20.299,2.392,7.236,2.392,7.236l-0.395-12.857l-7.828-11.446c0,0-6.598-1.71-7.453-0.521
					c-0.856,1.192-2.856,8.015-2.856,8.015L131.434,285.587z"/>
				<g>
					<path style="fill:#FFFFFF;" d="M138.711,285.152c0.108,0.345,0.939,0.885,1.714,0.893c0.776,0.008,1.263-0.314,1.091-0.868
						c-0.145-0.469-0.943-0.885-1.717-0.891C139.026,284.28,138.468,284.376,138.711,285.152z"/>
				</g>
			</g>
		</g>
	</g>
	<g>
		<defs>
			<path id="SVGID_00000135692624261318991570000011601173968973137540_" d="M158.149,285.586c-3.823-1.312-5.915,3.96-5.209,9.609
				c0.706,5.649,7.565,6.335,9.215,2.528S162.333,287.021,158.149,285.586z"/>
		</defs>
		<use xlink:href="#SVGID_00000135692624261318991570000011601173968973137540_"  style="overflow:visible;fill:#AB5E47;"/>
		<clipPath id="SVGID_00000053506766878020183380000006783820129444066433_">
			<use xlink:href="#SVGID_00000135692624261318991570000011601173968973137540_"  style="overflow:visible;"/>
		</clipPath>
		
			<linearGradient id="SVGID_00000021811119589396408290000002914277106313170617_" gradientUnits="userSpaceOnUse" x1="-208.4168" y1="61.4598" x2="-208.4168" y2="47.0649" gradientTransform="matrix(-0.9989 -0.3435 -0.1812 0.9434 -40.5517 170.6626)">
			<stop  offset="0" style="stop-color:#FFFFFF"/>
			<stop  offset="0.2386" style="stop-color:#FAFBFD"/>
			<stop  offset="0.5042" style="stop-color:#EDEEF7"/>
			<stop  offset="0.7817" style="stop-color:#D7D9ED"/>
			<stop  offset="1" style="stop-color:#C0C4E2"/>
		</linearGradient>
		
			<path style="clip-path:url(#SVGID_00000053506766878020183380000006783820129444066433_);fill:url(#SVGID_00000021811119589396408290000002914277106313170617_);" d="
			M158.149,285.586c-3.823-1.312-5.915,3.96-5.209,9.609c0.706,5.649,7.565,6.335,9.215,2.528S162.333,287.021,158.149,285.586z"/>
		<g style="clip-path:url(#SVGID_00000053506766878020183380000006783820129444066433_);">
			<g>
				
					<linearGradient id="SVGID_00000043421287716336299370000012012203102131359658_" gradientUnits="userSpaceOnUse" x1="-113.805" y1="-166.1505" x2="-111.283" y2="-175.9975" gradientTransform="matrix(-0.8229 -0.6734 -0.571 0.7124 -34.5957 338.3927)">
					<stop  offset="0" style="stop-color:#BFC463"/>
					<stop  offset="0.1311" style="stop-color:#91994B"/>
					<stop  offset="0.2747" style="stop-color:#667034"/>
					<stop  offset="0.414" style="stop-color:#445022"/>
					<stop  offset="0.5459" style="stop-color:#2C3A15"/>
					<stop  offset="0.6673" style="stop-color:#1D2C0E"/>
					<stop  offset="0.7683" style="stop-color:#18270B"/>
				</linearGradient>
				<path style="fill:url(#SVGID_00000043421287716336299370000012012203102131359658_);" d="M152.808,289.398
					c-1.16,2.196-0.832,5.337,0.733,7.016c1.565,1.679,3.775,1.259,4.935-0.937c1.16-2.196,0.832-5.337-0.733-7.016
					S153.969,287.201,152.808,289.398z"/>
				
					<linearGradient id="SVGID_00000158024174464179208180000003932489811515628223_" gradientUnits="userSpaceOnUse" x1="16.4757" y1="-158.2974" x2="16.4757" y2="-168.2891" gradientTransform="matrix(-0.7348 -0.8279 -0.8764 0.5234 24.8234 398.4478)">
					<stop  offset="0.2317" style="stop-color:#000000"/>
					<stop  offset="0.3386" style="stop-color:#020804"/>
					<stop  offset="0.5086" style="stop-color:#081F10"/>
					<stop  offset="0.7203" style="stop-color:#114523"/>
					<stop  offset="0.9635" style="stop-color:#1D793E"/>
					<stop  offset="1" style="stop-color:#1F8142"/>
				</linearGradient>
				<path style="opacity:0.32;fill:url(#SVGID_00000158024174464179208180000003932489811515628223_);" d="M152.4,294.248
					c-2.077,1.774-2.223,5.489-0.328,8.299c1.896,2.81,5.116,3.65,7.192,1.876c2.077-1.774,2.223-5.489,0.328-8.299
					C157.697,293.314,154.477,292.474,152.4,294.248z"/>
			</g>
			<path style="opacity:0.37;fill:#8486EA;" d="M152.861,294.973c-0.008-9.734,8.083-13.691,10.674-0.022
				c4.002,21.113,1.078,5.665,1.078,5.665l-1.451-11.782l-6.98-8.43c0,0-4.867,0.589-5.285,2.061
				c-0.418,1.472-0.774,8.827-0.774,8.827L152.861,294.973z"/>
			<g>
				<path style="fill:#FFFFFF;" d="M158.303,291.683c-0.004,0.338,0.883,1.073,1.926,1.321c1.043,0.247,1.838,0.115,1.85-0.426
					c0.01-0.458-0.883-1.073-1.926-1.321C159.11,291.01,158.312,290.921,158.303,291.683z"/>
			</g>
		</g>
	</g>
	<path style="fill:#AB192E;" d="M149.244,299.345c-1.931-0.597-3.019-2.756-4.144-2.813c-1.981-0.1,0.957,5.719,3.158,6.424
		c2.2,0.704,3.853-1.472,3.998-2.894c0.145-1.422-0.46-1.427-1.206-1.109C150.305,299.271,150.015,299.583,149.244,299.345z"/>
	<g>
		<path style="fill:#380000;" d="M145.294,299.791c-0.901-1.654-1.26-3.314-0.194-3.26c1.125,0.057,2.213,2.217,4.144,2.813
			c0.771,0.238,1.06-0.074,1.806-0.393c0.746-0.319,1.351-0.314,1.206,1.109c-0.079,0.775-0.609,1.772-1.428,2.407
			C150.248,301.71,148.491,299.853,145.294,299.791z"/>
	</g>
</g>
</svg>
