<?xml version="1.0" encoding="iso-8859-1"?>
<!-- Generator: Adobe Illustrator 26.0.1, SVG Export Plug-In . SVG Version: 6.00 Build 0)  -->
<svg version="1.1" id="Calque_1" xmlns="http://www.w3.org/2000/svg" xmlns:xlink="http://www.w3.org/1999/xlink" x="0px" y="0px"
	 viewBox="0 0 215.19 63.713" style="enable-background:new 0 0 215.19 63.713;" xml:space="preserve">
<g>
	<path style="fill:#1E1B58;" d="M29.284,29.254l-0.045-0.046c-1.9,1.809-3.776,3.641-5.382,5.45
		c-0.656,0.746-3.053,4.002-4.251,5.608c-0.158,0.226-0.43,0.633-0.723,0.633c-0.498,0-1.787-0.905-1.787-1.425
		c0-0.136,0.158-0.385,0.226-0.498c0.927-1.425,5.269-9,5.269-10.244c0-0.294-0.068-0.475-0.362-0.475
		c-0.769,0-3.256,1.221-7.055,3.731c-0.181,0.135-0.475,0.294-0.678,0.294c-0.43,0-0.407-0.724-0.407-0.995
		c0-2.714,3.912-5.631,4.591-5.631c0.113,0,0.249,0.067,0.249,0.181c0,0.023-0.113,0.385-1.221,1.447l0.045,0.045
		c1.605-0.882,4.41-2.465,6.287-2.465c0.769,0,1.515,0.43,1.447,1.266c-0.136,1.809-1.018,3.302-3.935,8.435l0.045,0.046
		c4.342-5.224,6.264-7.101,6.829-7.485c0.678-0.452,2.374-1.741,2.895-1.741c0.384,0,1.854,1.062,1.854,2.148
		c0,1.425-2.895,4.342-5.066,8.638c-0.656,1.311-0.701,1.764-0.701,1.855c0,0.407,0.09,0.927,0.588,0.927
		c0.905,0,3.867-3.053,4.523-3.867c0.045,0.543,0.091,0.814,0.091,1.017c0,0.181-0.068,0.294-0.249,0.52
		c-3.256,4.206-5.631,5.427-6.603,5.427c-1.13,0-1.538-0.995-1.538-1.968c0-1.244,0.633-2.668,1.221-3.754L29.284,29.254z"/>
	<path style="fill:#1E1B58;" d="M35.593,39.113c-0.43,0.339-1.877,1.515-2.397,1.515c-0.633,0-1.945-1.493-1.99-2.669
		c-0.091-2.827,5.789-5.722,8.412-5.789c1.04-0.023,1.47,0.814,1.47,1.085c0,0.271-0.588,0.497-0.792,0.565
		c0.43,0.181,0.656,0.43,0.656,0.927c0,0.724-1.968,2.306-1.968,3.369c0,0.384,0.339,0.543,0.701,0.543
		c0.95,0,2.239-1.153,3.211-1.809l0.181,0.837c-0.972,1.108-4.003,3.528-5.111,3.528c-0.746,0-1.086-0.543-1.086-1.199
		c0-0.723,0.543-1.922,0.837-2.533l-0.045-0.045L35.593,39.113z M32.857,38.525c0.023,0.113,0.113,0.52,0.452,0.452
		c0.452-0.09,1.153-0.022,5.631-4.545l-0.045-0.045C33.513,36.038,32.857,37.417,32.857,38.525z"/>
	<path style="fill:#1E1B58;" d="M50.767,31.221c-1.063,2.148-1.244,2.985-3.731,2.827c-0.769,0.995-2.058,2.849-2.058,4.206
		c0,0.498,0.158,0.792,0.678,0.792c0.724,0,1.538-0.679,3.89-2.352l0.113,0.995c-1.334,1.221-3.776,3.641-5.698,3.641
		c-0.882,0-1.425-0.611-1.425-1.515c0-0.746,0.294-1.606,0.588-2.261l-0.045-0.045l-1.153,0.927l-0.249-0.859
		c1.357-1.04,2.601-2.194,3.437-3.618c-1.379,0-0.95-0.09-2.149,0.091l0.249-0.407c1.221-1.99,1.402-2.352,3.822-2.442
		c0.679-0.927,1.176-1.99,2.488-1.99c0.294,0,0.724,0.068,0.724,0.43c0,0.407-0.656,1.153-0.882,1.47L50.767,31.221z"/>
	<path style="fill:#1E1B58;" d="M55.946,34.635c0.475-0.43,2.691-2.578,3.256-2.578c0.181,0,0.43,0.067,0.52,1.243
		c0.045,0.543-0.565,1.063-0.927,1.379c-0.724,0.656-2.329,2.442-2.329,3.46c0,0.362,0.204,0.497,0.565,0.497
		c0.859,0,2.804-1.583,3.483-2.125l0.136,0.972c-1.153,1.108-3.551,3.709-5.224,3.709c-0.837,0-1.334-0.701-1.334-1.493
		c0-0.678,0.249-1.311,0.475-1.899l-0.045-0.045c-0.882,0.769-2.397,2.804-3.641,2.804c-1.108,0-1.719-1.266-1.719-2.239
		c0-2.193,1.696-4.455,3.143-5.405c0.317-0.203,0.611-0.249,0.995-0.249c0.317,0,1.47-0.204,1.379,0.475
		c-0.045,0.362-0.656,0.995-0.904,1.198c-0.701,0.792-0.837,0.995-1.719,1.628c-0.701,0.497-1.244,0.995-1.244,1.945
		c0,0.113,0.023,0.339,0.181,0.339c0.407,0,1.651-0.655,2.713-1.605L55.946,34.635z"/>
	<path style="fill:#1E1B58;" d="M61.916,35.743c-0.791,1.243-1.741,1.832-2.714,2.804l-0.09-0.995
		c0.588-0.475,1.063-1.04,1.492-1.651c-0.475-0.045-0.611-0.226-0.611-0.701c0-1.628,2.306-3.256,2.849-3.256
		c0.226,0,0.407,0.181,0.407,0.384c0,0.226-0.068,0.43-0.158,0.633c2.126-0.294,3.369-0.565,3.595-0.294
		c0.339,0.43,0.497,0.791,0.543,1.198c0,0.701-0.43,1.04-0.95,1.47c-0.656,0.565-1.764,1.674-1.764,2.578
		c0,0.362,0.362,0.633,0.701,0.633c0.972,0,2.397-1.47,3.143-2.035l0.158,0.837c-0.859,0.972-3.46,3.483-4.749,3.483
		c-0.95,0-1.538-0.882-1.538-1.742c0-1.538,1.176-2.736,2.08-3.821l-0.045-0.046L61.916,35.743z"/>
	<path style="fill:#1E1B58;" d="M76.592,37.281c-1.379,1.606-3.867,3.732-6.105,3.732c-1.651,0-2.42-1.47-2.465-2.963
		c-0.091-2.962,3.188-5.992,6.128-5.97c0.724,0,1.628,0.181,1.628,1.086c0,1.108-1.108,2.781-5.45,4.206l-0.045,0.497
		c-0.068,0.86,0.678,1.154,1.402,1.154c1.606,0,3.505-1.651,4.704-2.601L76.592,37.281z M73.788,33.64
		c0-0.158-0.113-0.294-0.271-0.249c-1.131,0.294-2.442,1.379-3.053,2.872C72.454,35.585,73.811,34.025,73.788,33.64z"/>
	<path style="fill:#1E1B58;" d="M83.467,37.304c-1.244,1.289-3.369,3.573-5.314,3.573c-1.651,0-2.013-1.606-2.013-2.94
		c0-2.374,1.018-4.93,2.488-6.739c1.99-2.465,4.138-4.568,4.862-4.568c0.384,0,0.475,0.543,0.452,0.837
		c-0.158,2.148-0.746,4.138-5.653,8.887c-0.204,0.384-0.271,1.018-0.158,1.56c0.203,0.52,0.52,0.972,1.131,0.972
		c1.244,0,2.985-1.447,3.89-2.261L83.467,37.304z M78.786,34.274c1.606-1.493,3.008-3.664,3.415-4.953
		c-1.108,0.543-2.397,2.578-3.46,4.907L78.786,34.274z"/>
	<path style="fill:#1E1B58;" d="M90.251,37.304c-1.244,1.289-3.369,3.573-5.314,3.573c-1.651,0-2.013-1.606-2.013-2.94
		c0-2.374,1.018-4.93,2.488-6.739c1.99-2.465,4.138-4.568,4.862-4.568c0.384,0,0.475,0.543,0.452,0.837
		c-0.158,2.148-0.746,4.138-5.654,8.887c-0.203,0.384-0.271,1.018-0.158,1.56c0.204,0.52,0.52,0.972,1.131,0.972
		c1.243,0,2.985-1.447,3.889-2.261L90.251,37.304z M85.57,34.274c1.605-1.493,3.008-3.664,3.415-4.953
		c-1.108,0.543-2.397,2.578-3.46,4.907L85.57,34.274z"/>
	<path style="fill:#1E1B58;" d="M98.233,37.281c-1.379,1.606-3.867,3.732-6.106,3.732c-1.651,0-2.42-1.47-2.465-2.963
		c-0.091-2.962,3.188-5.992,6.128-5.97c0.724,0,1.628,0.181,1.628,1.086c0,1.108-1.108,2.781-5.45,4.206l-0.045,0.497
		c-0.068,0.86,0.678,1.154,1.402,1.154c1.606,0,3.505-1.651,4.704-2.601L98.233,37.281z M95.429,33.64
		c0-0.158-0.113-0.294-0.272-0.249c-1.131,0.294-2.442,1.379-3.053,2.872C94.095,35.585,95.452,34.025,95.429,33.64z"/>
	<path style="fill:#1E1B58;" d="M105.56,39.294c-0.52,0.497-1.334,1.425-2.103,1.425c-0.543,0-0.972-0.407-0.995-0.95
		c-0.023-0.656,0.52-1.696,1.99-3.935c0.045-0.045,0.136-0.226,0.136-0.294c0-0.091-0.068-0.159-0.158-0.159
		c-0.226,0-0.724,0.543-0.882,0.701c-1.176,1.244-2.442,2.601-3.505,3.912c-0.249,0.294-0.565,0.633-0.972,0.633
		c-1.086,0-1.402-1.764-1.402-2.578c0.023-2.216,2.42-5.246,3.776-5.065c0.339,0.045,1.018,0.045,1.018,0.52
		c0,0.452-0.633,1.13-0.905,1.447c-0.407,0.475-0.905,0.882-1.244,1.379c-0.249,0.339-0.656,0.701-0.656,1.176
		c0,0.045,0.068,0.203,0.158,0.203c0.113,0,0.384-0.294,0.452-0.362c1.108-1.153,5.133-5.178,6.603-5.178
		c0.611,0,0.927,0.452,0.927,1.04c0,0.995-1.605,2.827-2.103,3.709l0.045,0.045l5.02-3.958c0.226-0.181,0.791-0.633,1.062-0.633
		c0.181,0,0.407,0.543,0.475,0.633c0.158,0.249,0.407,0.588,0.407,0.905c0,0.384-0.452,0.882-0.701,1.153
		c-1.764,1.945-1.9,2.307-1.922,2.827c-0.023,0.271,0.271,0.633,0.543,0.565c0.475-0.113,0.724-0.113,3.505-2.013l0.135,1.063
		c-1.063,0.837-4.319,3.505-5.586,3.505c-0.678,0-1.153-0.656-1.153-1.312c0-1.13,1.108-2.736,1.674-3.663l-0.045-0.045
		L105.56,39.294z"/>
	<path style="fill:#1E1B58;" d="M122.362,37.281c-1.379,1.606-3.867,3.732-6.106,3.732c-1.651,0-2.42-1.47-2.465-2.963
		c-0.091-2.962,3.188-5.992,6.128-5.97c0.724,0,1.628,0.181,1.628,1.086c0,1.108-1.108,2.781-5.45,4.206l-0.045,0.497
		c-0.068,0.86,0.679,1.154,1.402,1.154c1.605,0,3.505-1.651,4.703-2.601L122.362,37.281z M119.558,33.64
		c0-0.158-0.113-0.294-0.272-0.249c-1.13,0.294-2.442,1.379-3.052,2.872C118.224,35.585,119.581,34.025,119.558,33.64z"/>
	<path style="fill:#1E1B58;" d="M132.629,36.173l0.181,0.995c-1.198,1.063-3.528,3.845-5.178,3.845
		c-0.859,0-1.266-0.724-1.266-1.492c0-1.357,1.221-2.85,1.945-3.89l-0.045-0.045c-1.312,0.972-2.465,2.148-3.483,3.46
		c-0.339,0.43-1.176,1.538-1.787,1.538c-0.995,0-1.243-1.425-1.266-2.193c-0.068-1.56,1.357-3.844,2.669-4.952
		c0.294-0.249,0.497-0.271,0.882-0.271c1.357,0.045,1.244,0.362,1.244,0.497c0,0.882-2.849,3.166-2.849,3.709
		c0,0.135,0.113,0.249,0.248,0.249c0.159,0,0.362-0.203,0.452-0.316c1.809-2.307,5.97-5.088,6.626-5.088
		c0.09,0,0.226,0.113,0.362,0.43c0.135,0.339,0.271,0.746,0.339,1.221c0,0.882-2.781,2.601-2.781,4.161
		c0,0.203,0.181,0.407,0.407,0.407c0.543,0,1.538-0.791,1.945-1.13L132.629,36.173z"/>
	<path style="fill:#1E1B58;" d="M140.295,31.221c-1.063,2.148-1.244,2.985-3.732,2.827c-0.769,0.995-2.057,2.849-2.057,4.206
		c0,0.498,0.158,0.792,0.678,0.792c0.724,0,1.538-0.679,3.89-2.352l0.113,0.995c-1.334,1.221-3.777,3.641-5.699,3.641
		c-0.882,0-1.425-0.611-1.425-1.515c0-0.746,0.294-1.606,0.588-2.261l-0.045-0.045l-1.153,0.927l-0.249-0.859
		c1.357-1.04,2.601-2.194,3.437-3.618c-1.379,0-0.95-0.09-2.148,0.091l0.249-0.407c1.221-1.99,1.402-2.352,3.821-2.442
		c0.679-0.927,1.176-1.99,2.488-1.99c0.294,0,0.724,0.068,0.724,0.43c0,0.407-0.656,1.153-0.882,1.47L140.295,31.221z"/>
	<path style="fill:#1E1B58;" d="M146.129,44.427c-0.181,0.339-0.588,0.949-1.018,0.949c-0.52,0-0.656-0.61-0.656-1.017
		c-0.022-1.131,0.475-2.261,1.402-3.573c1.04-1.47,2.171-3.324,3.641-5.812l-0.045-0.045l-3.573,3.415l-0.091-1.063l5.993-6.445
		c0.543-0.588,0.949-1.244,1.809-1.244c0.316,0,1.04,0.113,1.04,0.543c0,0.497-1.176,1.583-1.538,1.967
		c-0.769,0.814-1.47,1.651-1.922,2.669l0.045,0.045c0.972-0.701,3.256-2.193,4.478-2.193c0.611,0,0.949,0.475,0.949,1.062
		c0,1.244-1.13,2.804-3.663,5.043c1.945,0.135,2.397-0.226,4.816-2.306l0.159,1.04c-1.674,1.628-3.709,3.256-6.151,3.256
		c-0.611,0-1.063-0.181-1.606-0.452c-0.339,0.068-0.679,0.136-1.04,0.136c-0.316,0-0.611-0.068-0.905-0.136L146.129,44.427z
		 M153.297,36.422c0.249-0.317,0.566-0.701,0.566-1.108c0-0.158-0.068-0.317-0.249-0.317c-0.362,0-1.447,0.701-1.741,0.905
		c-0.837,0.611-1.47,1.379-2.08,2.193c0.656-0.045,1.289,0.023,1.899,0.226L153.297,36.422z"/>
	<path style="fill:#1E1B58;" d="M159.358,35.743c-0.791,1.243-1.741,1.832-2.714,2.804l-0.09-0.995
		c0.588-0.475,1.063-1.04,1.493-1.651c-0.475-0.045-0.611-0.226-0.611-0.701c0-1.628,2.306-3.256,2.85-3.256
		c0.226,0,0.407,0.181,0.407,0.384c0,0.226-0.068,0.43-0.158,0.633c2.125-0.294,3.369-0.565,3.596-0.294
		c0.339,0.43,0.498,0.791,0.543,1.198c0,0.701-0.43,1.04-0.95,1.47c-0.656,0.565-1.764,1.674-1.764,2.578
		c0,0.362,0.362,0.633,0.701,0.633c0.973,0,2.397-1.47,3.144-2.035l0.158,0.837c-0.86,0.972-3.46,3.483-4.749,3.483
		c-0.95,0-1.538-0.882-1.538-1.742c0-1.538,1.176-2.736,2.08-3.821l-0.045-0.046L159.358,35.743z"/>
	<path style="fill:#1E1B58;" d="M174.871,37.259c-1.017,1.289-2.012,1.831-3.663,1.831c-0.95,0.973-2.058,1.696-3.483,1.696
		c-1.176,0-2.261-1.176-2.352-3.234c-0.045-1.696,0.792-2.827,2.058-3.799c1.221-0.995,2.849-1.606,4.229-1.674
		c0.498-0.022,1.244,0.204,1.244,0.814c0,0.339-0.271,0.475-0.52,0.611c0.679,0.181,0.814,0.656,0.814,1.334
		c0,0.995-0.452,1.787-0.881,2.669c0.995,0.181,1.628-0.679,2.329-1.198L174.871,37.259z M167.974,36.196
		c-0.498,0.497-0.927,1.379-0.927,2.08c0,0.656,0.43,0.86,0.995,0.86c0.746,0,1.221-0.43,1.741-0.905
		c-0.158-0.362-0.271-0.656-0.271-1.04c0-1.176,1.063-2.601,0.973-2.646C169.715,34.997,168.652,35.54,167.974,36.196z"/>
	<path style="fill:#1E1B58;" d="M177.087,36.399c-0.497,0.362-0.904,0.701-0.904,1.334c0,0.52,0.543,1.221,1.718,1.221
		c1.719,0,3.686-1.583,4.998-2.601l0.271,0.882c-1.379,1.47-3.912,3.709-6.06,3.709c-1.742,0-2.578-1.628-2.578-3.301
		c0-1.9,0.679-2.601,2.149-3.709c1.017-0.769,3.188-1.99,4.455-1.99c0.701,0,1.017,0.362,1.017,1.04
		c0,1.244-1.786,2.985-2.397,2.985c-0.52,0-0.747-0.565-0.769-0.995L177.087,36.399z"/>
	<path style="fill:#1E1B58;" d="M184.143,37.801c1.108-0.882,5.224-4.5,6.468-4.5c0.543,0,1.085,0.565,1.085,1.086
		c0,0.43-0.904,1.425-1.176,1.741c-1.402,1.696-1.334,1.764-1.334,1.99c0,0.294,0.226,0.475,0.497,0.475
		c0.746,0,2.397-1.221,3.053-1.651l0.113,0.927c-1.041,0.792-3.777,3.008-5.021,3.008c-0.678,0-1.04-0.588-1.04-1.198
		c0-1.425,1.56-3.143,2.374-4.206l-0.045-0.045c-3.867,2.646-4.997,5.043-5.721,5.043c-0.792,0-0.905-1.764-0.905-2.284
		c0-1.56,0.588-2.646,1.379-3.935c2.669-4.41,7.169-8.367,7.937-8.367c0.362,0,0.973,0.158,0.973,0.61
		c0,1.538-7.191,9.001-8.639,10.425V37.801z"/>
	<path style="fill:#1E1B58;" d="M201.103,37.281c-1.379,1.606-3.867,3.732-6.106,3.732c-1.651,0-2.42-1.47-2.465-2.963
		c-0.09-2.962,3.188-5.992,6.128-5.97c0.724,0,1.628,0.181,1.628,1.086c0,1.108-1.108,2.781-5.45,4.206l-0.045,0.497
		c-0.068,0.86,0.679,1.154,1.402,1.154c1.605,0,3.505-1.651,4.703-2.601L201.103,37.281z M198.298,33.64
		c0-0.158-0.113-0.294-0.271-0.249c-1.13,0.294-2.442,1.379-3.052,2.872C196.964,35.585,198.321,34.025,198.298,33.64z"/>
</g>
</svg>
